<?xml version="1.0" encoding="UTF-8"?>
<svg width="1700" height="1700" version="1.1" viewBox="0 0 1700 1700" xml:space="preserve" xmlns="http://www.w3.org/2000/svg">
<desc>Created with Fabric.js 5.2.4</desc>



<g fill="#112f43"><path d="m1487.1 850.36-139.73 0.19531a517.18 517.18 0 0 1-517.01 504.19 517.18 517.18 0 0 1-517.18-517.18 517.18 517.18 0 0 1 517.18-517.18 517.18 517.18 0 0 1 245.74 62.115l69.697-121.11a656.87 656.87 0 0 0-315.44-80.697 656.87 656.87 0 0 0-656.87 656.87 656.87 656.87 0 0 0 656.87 656.87 656.87 656.87 0 0 0 656.75-644.08z" stroke-width="3.6864"/><g>























<rect transform="matrix(0 6.05 -1.59 0 830.35 271.34)" x="-37.46" y="-19.415" width="74.92" height="38.83" rx="0" ry="0" vector-effect="non-scaling-stroke"/><rect transform="matrix(0 6.05 -1.59 0 830.35 1435.4)" x="-37.46" y="-19.415" width="74.92" height="38.83" rx="0" ry="0" vector-effect="non-scaling-stroke"/>

<rect transform="matrix(6.05 0 0 1.59 245.73 837.57)" x="-37.46" y="-19.415" width="74.92" height="38.83" rx="0" ry="0" vector-effect="non-scaling-stroke"/><rect transform="matrix(6.05 0 0 1.59 1406.1 837.57)" x="-37.46" y="-19.415" width="74.92" height="38.83" rx="0" ry="0" vector-effect="non-scaling-stroke"/>


</g><path transform="translate(-6.8858 -10.536)" x="806.35754" y="560.57385" width="61.758984" height="249.05684" ry="26.779913" d="m833.14 560.57h8.1992c14.836 0 26.78 11.944 26.78 26.78v195.5c0 14.836-11.944 26.78-26.78 26.78h-8.1992c-14.836 0-26.78-11.944-26.78-26.78v-195.5c0-14.836 11.944-26.78 26.78-26.78z"/><path transform="matrix(0 1 -.89071 0 1589.9 .32916)" x="806.35754" y="560.57385" width="61.758984" height="249.05684" ry="26.779913" d="m833.14 560.57h8.1992c14.836 0 26.78 11.944 26.78 26.78v195.5c0 14.836-11.944 26.78-26.78 26.78h-8.1992c-14.836 0-26.78-11.944-26.78-26.78v-195.5c0-14.836 11.944-26.78 26.78-26.78z"/><path d="m830.35 760.53a78.79 77.034 0 0 0-78.789 77.035 78.79 77.034 0 0 0 78.789 77.033 78.79 77.034 0 0 0 78.791-77.033 78.79 77.034 0 0 0-78.791-77.035zm0 41.186a37.167 35.85 0 0 1 37.166 35.85 37.167 35.85 0 0 1-37.166 35.85 37.167 35.85 0 0 1-37.166-35.85 37.167 35.85 0 0 1 37.166-35.85z"/><path transform="matrix(-.75947 1.2117 -.91844 -.60808 2372.6 -808.73)" d="m1274 420.94-125.35 6.0806-128.29 6.253 57.41-111.6 58.729-114.23 67.942 105.52z"/></g></svg>
