<?xml version="1.0" encoding="UTF-8" standalone="no" ?>
<!DOCTYPE svg PUBLIC "-//W3C//DTD SVG 1.1//EN" "http://www.w3.org/Graphics/SVG/1.1/DTD/svg11.dtd">
<svg xmlns="http://www.w3.org/2000/svg" xmlns:xlink="http://www.w3.org/1999/xlink" version="1.1" width="440" height="135" viewBox="420 445 440 135" xml:space="preserve">
<desc>Created with Fabric.js 5.3.0</desc>
<defs>
<linearGradient id="blue-gradient" x1="0%" y1="0%" x2="100%" y2="100%">
<stop offset="0%" stop-color="#3b82f6" stop-opacity="1"/>
<stop offset="100%" stop-color="#6366f1" stop-opacity="1"/>
</linearGradient>
</defs>
<g transform="matrix(1.5138680408445604 0 0 1.5138680408445604 640.0000000000002 561.8620768604432)" id="logo-logo"  >
<g style=""  paint-order="stroke"   >
		<g transform="matrix(0.26849483482762154 0 0 0.06416348281619322 -113.79931963906378 0)"  >
<g style=""  paint-order="stroke"   >
		<g transform="matrix(1 0 0 1 0 0)"  >
<polygon style="stroke: none; stroke-width: 1; stroke-dasharray: none; stroke-linecap: butt; stroke-dashoffset: 0; stroke-linejoin: miter; stroke-miterlimit: 4; fill: url(#blue-gradient); fill-rule: nonzero; opacity: 1;"  paint-order="stroke"  points="100,-50 -100,-50 -100,50 100,50 100,-50 100,-50 " />
</g>
</g>
</g>
		<g transform="matrix(0.26849483482762154 0 0 0.06416348281619322 113.79931963906375 0)"  >
<g style=""  paint-order="stroke"   >
		<g transform="matrix(1 0 0 1 0 0)"  >
<polygon style="stroke: none; stroke-width: 1; stroke-dasharray: none; stroke-linecap: butt; stroke-dashoffset: 0; stroke-linejoin: miter; stroke-miterlimit: 4; fill: url(#blue-gradient); fill-rule: nonzero; opacity: 1;"  paint-order="stroke"  points="100,-50 -100,-50 -100,50 100,50 100,-50 100,-50 " />
</g>
</g>
</g>
</g>
</g>
<g transform="matrix(1.9211538461538462 0 0 1.9211538461538462 640.4174006911057 562.7264091157058)" id="tagline-df16a45b-2129-4486-b2c4-90a4b3ed69f8-logo"  >
<g style=""  paint-order="stroke"   >
		<g transform="matrix(1 0 0 1 0 0)" id="tagline-df16a45b-2129-4486-b2c4-90a4b3ed69f8-logo-path-0"  >
<path style="stroke: none; stroke-width: 0; stroke-dasharray: none; stroke-linecap: butt; stroke-dashoffset: 0; stroke-linejoin: miter; stroke-miterlimit: 4; fill: url(#blue-gradient); fill-rule: nonzero; opacity: 1;"  paint-order="stroke"  transform=" translate(-55.16, 6.4)" d="M 2.96 -2.37 L 9.78 -2.37 L 9.78 0 L 2.96 0 L 2.96 -2.37 Z M 0.98 -12.8 L 4.06 -12.8 L 4.06 0 L 0.98 0 L 0.98 -12.8 Z M 2.96 -7.72 L 8.9 -7.72 L 8.9 -5.42 L 2.96 -5.42 L 2.96 -7.72 Z M 2.96 -12.8 L 9.81 -12.8 L 9.81 -10.42 L 2.96 -10.42 L 2.96 -12.8 Z M 20.05 -3.4 L 20.05 -3.4 C 20.05 -3.6 20.03 -3.78 19.96 -3.95 C 19.9 -4.1 19.8 -4.25 19.64 -4.39 C 19.48 -4.54 19.25 -4.68 18.96 -4.83 C 18.66 -4.97 18.28 -5.12 17.79 -5.27 L 17.79 -5.27 C 17.23 -5.46 16.69 -5.68 16.17 -5.92 C 15.65 -6.15 15.18 -6.42 14.77 -6.75 C 14.36 -7.07 14.03 -7.44 13.79 -7.88 C 13.56 -8.31 13.43 -8.81 13.43 -9.38 L 13.43 -9.38 C 13.43 -9.93 13.56 -10.42 13.8 -10.87 C 14.05 -11.31 14.39 -11.69 14.84 -12.01 C 15.28 -12.31 15.8 -12.56 16.4 -12.73 C 16.99 -12.89 17.64 -12.97 18.36 -12.97 L 18.36 -12.97 C 19.3 -12.97 20.12 -12.81 20.84 -12.49 C 21.55 -12.16 22.12 -11.7 22.53 -11.11 C 22.93 -10.51 23.14 -9.81 23.14 -9 L 23.14 -9 L 20.07 -9 C 20.07 -9.33 20 -9.61 19.88 -9.85 C 19.74 -10.1 19.54 -10.29 19.28 -10.43 C 19.01 -10.57 18.68 -10.64 18.29 -10.64 L 18.29 -10.64 C 17.9 -10.64 17.57 -10.58 17.31 -10.47 C 17.05 -10.35 16.84 -10.2 16.71 -10 C 16.58 -9.8 16.51 -9.59 16.51 -9.35 L 16.51 -9.35 C 16.51 -9.16 16.56 -8.98 16.68 -8.83 C 16.78 -8.67 16.94 -8.53 17.14 -8.39 C 17.34 -8.26 17.59 -8.13 17.88 -8.01 C 18.17 -7.88 18.5 -7.76 18.86 -7.65 L 18.86 -7.65 C 19.53 -7.43 20.14 -7.19 20.68 -6.93 C 21.2 -6.65 21.65 -6.35 22.02 -6.02 C 22.38 -5.68 22.66 -5.3 22.86 -4.87 C 23.04 -4.44 23.14 -3.96 23.14 -3.42 L 23.14 -3.42 C 23.14 -2.85 23.02 -2.34 22.8 -1.89 C 22.58 -1.44 22.26 -1.06 21.84 -0.76 C 21.43 -0.46 20.93 -0.22 20.35 -0.06 C 19.77 0.1 19.12 0.18 18.41 0.18 L 18.41 0.18 C 17.75 0.18 17.11 0.09 16.47 -0.08 C 15.83 -0.25 15.26 -0.5 14.74 -0.85 C 14.22 -1.2 13.82 -1.64 13.51 -2.2 C 13.2 -2.74 13.05 -3.39 13.05 -4.15 L 13.05 -4.15 L 16.14 -4.15 C 16.14 -3.77 16.19 -3.45 16.29 -3.2 C 16.39 -2.94 16.54 -2.73 16.73 -2.58 C 16.92 -2.43 17.16 -2.31 17.44 -2.25 C 17.72 -2.18 18.05 -2.14 18.41 -2.14 L 18.41 -2.14 C 18.8 -2.14 19.12 -2.21 19.36 -2.32 C 19.59 -2.43 19.77 -2.58 19.88 -2.78 C 20 -2.96 20.05 -3.17 20.05 -3.4 Z M 30.25 -12.8 L 33.34 -12.8 L 33.34 0 L 30.25 0 L 30.25 -12.8 Z M 26.49 -12.8 L 37.19 -12.8 L 37.19 -10.42 L 26.49 -10.42 L 26.49 -12.8 Z M 45.06 0 L 45.06 0 L 42.23 0 L 42.24 -2.37 L 45.06 -2.37 C 45.65 -2.37 46.15 -2.51 46.56 -2.79 C 46.96 -3.08 47.27 -3.5 47.49 -4.06 C 47.7 -4.61 47.81 -5.31 47.81 -6.13 L 47.81 -6.13 L 47.81 -6.68 C 47.81 -7.29 47.74 -7.84 47.63 -8.31 C 47.51 -8.77 47.33 -9.16 47.09 -9.47 C 46.86 -9.78 46.57 -10.02 46.22 -10.18 C 45.87 -10.34 45.47 -10.42 45.02 -10.42 L 45.02 -10.42 L 42.17 -10.42 L 42.17 -12.8 L 45.02 -12.8 C 45.89 -12.8 46.68 -12.65 47.41 -12.36 C 48.13 -12.06 48.76 -11.64 49.29 -11.09 C 49.82 -10.54 50.23 -9.9 50.52 -9.15 C 50.81 -8.4 50.95 -7.57 50.95 -6.66 L 50.95 -6.66 L 50.95 -6.13 C 50.95 -5.22 50.81 -4.39 50.52 -3.65 C 50.23 -2.9 49.82 -2.25 49.29 -1.71 C 48.76 -1.16 48.14 -0.74 47.43 -0.45 C 46.71 -0.15 45.92 0 45.06 0 Z M 40.91 -12.8 L 43.99 -12.8 L 43.99 0 L 40.91 0 L 40.91 -12.8 Z M 65.56 -2.29 L 70.6 -2.29 L 70.6 0 L 61.67 0 L 61.67 -1.93 L 65.79 -6.26 C 66.15 -6.67 66.45 -7.05 66.67 -7.38 C 66.89 -7.71 67.05 -8.01 67.16 -8.28 C 67.26 -8.55 67.31 -8.79 67.31 -9.01 L 67.31 -9.01 C 67.31 -9.38 67.26 -9.69 67.15 -9.94 C 67.04 -10.19 66.88 -10.37 66.68 -10.5 C 66.46 -10.63 66.21 -10.7 65.9 -10.7 L 65.9 -10.7 C 65.59 -10.7 65.33 -10.61 65.1 -10.43 C 64.87 -10.26 64.7 -10.02 64.57 -9.71 C 64.44 -9.4 64.38 -9.06 64.38 -8.68 L 64.38 -8.68 L 61.41 -8.68 C 61.41 -9.47 61.6 -10.19 61.99 -10.84 C 62.37 -11.49 62.9 -12.01 63.59 -12.4 C 64.28 -12.79 65.07 -12.98 65.97 -12.98 L 65.97 -12.98 C 66.91 -12.98 67.7 -12.83 68.35 -12.54 C 68.99 -12.25 69.47 -11.83 69.8 -11.28 C 70.12 -10.72 70.28 -10.05 70.28 -9.27 L 70.28 -9.27 C 70.28 -8.82 70.21 -8.4 70.07 -7.99 C 69.93 -7.58 69.73 -7.17 69.46 -6.78 C 69.2 -6.37 68.88 -5.96 68.5 -5.54 C 68.13 -5.12 67.69 -4.67 67.21 -4.19 L 67.21 -4.19 L 65.56 -2.29 Z M 83.4 -7.57 L 83.4 -7.57 L 83.4 -5.23 C 83.4 -4.31 83.3 -3.51 83.09 -2.83 C 82.87 -2.15 82.56 -1.59 82.17 -1.14 C 81.78 -0.69 81.3 -0.37 80.76 -0.15 C 80.21 0.07 79.62 0.18 78.96 0.18 L 78.96 0.18 C 78.43 0.18 77.94 0.11 77.48 -0.04 C 77.02 -0.17 76.61 -0.38 76.25 -0.67 C 75.88 -0.95 75.56 -1.3 75.3 -1.73 C 75.04 -2.16 74.84 -2.66 74.69 -3.25 C 74.55 -3.83 74.48 -4.49 74.48 -5.23 L 74.48 -5.23 L 74.48 -7.57 C 74.48 -8.49 74.59 -9.3 74.81 -9.98 C 75.02 -10.65 75.33 -11.21 75.72 -11.65 C 76.12 -12.1 76.59 -12.43 77.14 -12.65 C 77.68 -12.87 78.28 -12.97 78.94 -12.97 L 78.94 -12.97 C 79.47 -12.97 79.96 -12.9 80.42 -12.77 C 80.86 -12.63 81.28 -12.42 81.65 -12.14 C 82.02 -11.85 82.33 -11.5 82.6 -11.07 C 82.85 -10.63 83.05 -10.13 83.19 -9.55 C 83.33 -8.96 83.4 -8.31 83.4 -7.57 Z M 80.44 -4.87 L 80.44 -4.87 L 80.44 -7.95 C 80.44 -8.36 80.43 -8.71 80.38 -9.02 C 80.34 -9.33 80.27 -9.58 80.19 -9.79 C 80.1 -10 79.99 -10.18 79.87 -10.31 C 79.75 -10.44 79.61 -10.54 79.46 -10.6 C 79.3 -10.66 79.12 -10.69 78.94 -10.69 L 78.94 -10.69 C 78.7 -10.69 78.5 -10.64 78.32 -10.55 C 78.13 -10.45 77.97 -10.29 77.84 -10.08 C 77.71 -9.87 77.61 -9.59 77.55 -9.24 C 77.48 -8.89 77.45 -8.46 77.45 -7.95 L 77.45 -7.95 L 77.45 -4.87 C 77.45 -4.46 77.47 -4.1 77.52 -3.79 C 77.56 -3.48 77.62 -3.22 77.71 -3.01 C 77.79 -2.79 77.89 -2.62 78.02 -2.49 C 78.14 -2.36 78.28 -2.26 78.44 -2.2 C 78.6 -2.14 78.77 -2.11 78.96 -2.11 L 78.96 -2.11 C 79.19 -2.11 79.39 -2.15 79.57 -2.25 C 79.76 -2.35 79.92 -2.5 80.05 -2.72 C 80.18 -2.93 80.28 -3.21 80.35 -3.57 C 80.41 -3.92 80.44 -4.35 80.44 -4.87 Z M 91.25 -2.29 L 96.29 -2.29 L 96.29 0 L 87.36 0 L 87.36 -1.93 L 91.48 -6.26 C 91.84 -6.67 92.14 -7.05 92.36 -7.38 C 92.58 -7.71 92.74 -8.01 92.85 -8.28 C 92.94 -8.55 93 -8.79 93 -9.01 L 93 -9.01 C 93 -9.38 92.94 -9.69 92.84 -9.94 C 92.72 -10.19 92.57 -10.37 92.36 -10.5 C 92.15 -10.63 91.9 -10.7 91.59 -10.7 L 91.59 -10.7 C 91.28 -10.7 91.02 -10.61 90.79 -10.43 C 90.56 -10.26 90.39 -10.02 90.26 -9.71 C 90.13 -9.4 90.07 -9.06 90.07 -8.68 L 90.07 -8.68 L 87.1 -8.68 C 87.1 -9.47 87.29 -10.19 87.68 -10.84 C 88.06 -11.49 88.59 -12.01 89.28 -12.4 C 89.97 -12.79 90.76 -12.98 91.66 -12.98 L 91.66 -12.98 C 92.6 -12.98 93.39 -12.83 94.03 -12.54 C 94.68 -12.25 95.16 -11.83 95.48 -11.28 C 95.81 -10.72 95.97 -10.05 95.97 -9.27 L 95.97 -9.27 C 95.97 -8.82 95.9 -8.4 95.76 -7.99 C 95.62 -7.58 95.41 -7.17 95.15 -6.78 C 94.89 -6.37 94.57 -5.96 94.19 -5.54 C 93.81 -5.12 93.38 -4.67 92.9 -4.19 L 92.9 -4.19 L 91.25 -2.29 Z M 106.88 -12.98 L 106.88 -12.98 L 107.35 -12.98 L 107.35 -10.65 L 107.2 -10.65 C 106.62 -10.65 106.1 -10.57 105.6 -10.42 C 105.1 -10.26 104.67 -10.02 104.3 -9.7 C 103.93 -9.38 103.64 -8.97 103.43 -8.49 C 103.22 -8.01 103.12 -7.44 103.12 -6.78 L 103.12 -6.78 L 103.12 -4.54 C 103.12 -4.12 103.15 -3.77 103.22 -3.46 C 103.29 -3.16 103.4 -2.91 103.54 -2.71 C 103.68 -2.5 103.86 -2.36 104.07 -2.26 C 104.27 -2.16 104.51 -2.11 104.79 -2.11 L 104.79 -2.11 C 105.02 -2.11 105.23 -2.16 105.42 -2.27 C 105.61 -2.37 105.78 -2.52 105.93 -2.72 C 106.07 -2.91 106.18 -3.14 106.25 -3.39 C 106.33 -3.65 106.37 -3.93 106.37 -4.24 L 106.37 -4.24 C 106.37 -4.56 106.33 -4.86 106.25 -5.12 C 106.17 -5.39 106.05 -5.62 105.9 -5.8 C 105.75 -5.99 105.57 -6.13 105.37 -6.22 C 105.16 -6.32 104.93 -6.36 104.68 -6.36 L 104.68 -6.36 C 104.3 -6.36 103.99 -6.28 103.73 -6.12 C 103.47 -5.95 103.28 -5.73 103.14 -5.48 C 103.01 -5.22 102.94 -4.96 102.94 -4.69 L 102.94 -4.69 L 102.23 -5.41 C 102.22 -5.77 102.28 -6.13 102.43 -6.5 C 102.58 -6.88 102.8 -7.22 103.09 -7.55 C 103.38 -7.88 103.75 -8.13 104.19 -8.33 C 104.63 -8.53 105.14 -8.63 105.72 -8.63 L 105.72 -8.63 C 106.31 -8.63 106.83 -8.52 107.27 -8.3 C 107.72 -8.08 108.1 -7.76 108.41 -7.37 C 108.72 -6.97 108.94 -6.5 109.1 -5.97 C 109.26 -5.43 109.34 -4.86 109.34 -4.24 L 109.34 -4.24 C 109.34 -3.61 109.23 -3.03 109.01 -2.5 C 108.8 -1.96 108.48 -1.49 108.08 -1.09 C 107.69 -0.69 107.21 -0.38 106.67 -0.16 C 106.12 0.06 105.53 0.18 104.87 0.18 L 104.87 0.18 C 104.19 0.18 103.57 0.06 103 -0.18 C 102.43 -0.4 101.93 -0.74 101.51 -1.19 C 101.08 -1.63 100.75 -2.16 100.52 -2.8 C 100.28 -3.45 100.16 -4.17 100.16 -4.97 L 100.16 -4.97 L 100.16 -6.06 C 100.16 -7.15 100.34 -8.13 100.7 -8.98 C 101.06 -9.83 101.55 -10.56 102.18 -11.16 C 102.8 -11.75 103.51 -12.21 104.32 -12.52 C 105.13 -12.82 105.98 -12.98 106.88 -12.98 Z" stroke-linecap="round" />
</g>
</g>
</g>
<g transform="matrix(1.9211538461538462 0 0 1.9211538461538462 640.4622588829627 483.12299016732993)" id="text-logo"  >
<g style=""  paint-order="stroke"   >
		<g transform="matrix(1 0 0 1 0 0)" id="text-logo-path-0"  >
<path style="stroke: none; stroke-width: 0; stroke-dasharray: none; stroke-linecap: butt; stroke-dashoffset: 0; stroke-linejoin: miter; stroke-miterlimit: 4; fill: url(#blue-gradient); fill-rule: nonzero; opacity: 1;"  paint-order="stroke"  transform=" translate(-37.76, 15.284999999999998)" d="M 20.51 -30.57 L 27.86 -30.57 L 27.86 0 L 20.51 0 L 9.7 -19.02 L 9.7 0 L 2.33 0 L 2.33 -30.57 L 9.7 -30.57 L 20.51 -11.55 L 20.51 -30.57 Z M 36.45 -30.57 L 43.79 -30.57 L 43.79 0 L 36.45 0 L 36.45 -30.57 Z M 73.19 -18.08 L 73.19 -18.08 L 73.19 -12.49 C 73.19 -10.29 72.93 -8.38 72.43 -6.76 C 71.9 -5.14 71.17 -3.8 70.25 -2.73 C 69.3 -1.66 68.17 -0.88 66.87 -0.36 C 65.56 0.17 64.14 0.42 62.56 0.42 L 62.56 0.42 C 61.3 0.42 60.13 0.25 59.03 -0.08 C 57.94 -0.4 56.96 -0.9 56.09 -1.6 C 55.21 -2.27 54.46 -3.11 53.83 -4.14 C 53.2 -5.17 52.71 -6.36 52.38 -7.77 C 52.04 -9.15 51.87 -10.73 51.87 -12.49 L 51.87 -12.49 L 51.87 -18.08 C 51.87 -20.28 52.13 -22.21 52.65 -23.83 C 53.16 -25.45 53.89 -26.77 54.84 -27.84 C 55.78 -28.91 56.91 -29.69 58.22 -30.21 C 59.52 -30.74 60.94 -30.99 62.52 -30.99 L 62.52 -30.99 C 63.78 -30.99 64.96 -30.82 66.05 -30.51 C 67.12 -30.17 68.1 -29.67 68.99 -29 C 69.87 -28.3 70.62 -27.46 71.25 -26.43 C 71.86 -25.41 72.35 -24.21 72.68 -22.82 C 73.02 -21.42 73.19 -19.84 73.19 -18.08 Z M 66.11 -11.63 L 66.11 -11.63 L 66.11 -18.98 C 66.11 -19.97 66.07 -20.81 65.96 -21.54 C 65.86 -22.28 65.69 -22.89 65.5 -23.39 C 65.29 -23.89 65.04 -24.31 64.75 -24.63 C 64.45 -24.94 64.12 -25.17 63.76 -25.32 C 63.38 -25.47 62.96 -25.53 62.52 -25.53 L 62.52 -25.53 C 61.95 -25.53 61.47 -25.43 61.03 -25.2 C 60.59 -24.96 60.21 -24.59 59.9 -24.08 C 59.58 -23.58 59.35 -22.91 59.2 -22.07 C 59.03 -21.23 58.95 -20.2 58.95 -18.98 L 58.95 -18.98 L 58.95 -11.63 C 58.95 -10.65 59.01 -9.78 59.12 -9.05 C 59.22 -8.31 59.37 -7.68 59.58 -7.18 C 59.77 -6.66 60.02 -6.26 60.32 -5.94 C 60.61 -5.63 60.94 -5.4 61.32 -5.25 C 61.7 -5.1 62.12 -5.04 62.56 -5.04 L 62.56 -5.04 C 63.11 -5.04 63.59 -5.14 64.03 -5.38 C 64.47 -5.61 64.85 -5.96 65.17 -6.49 C 65.48 -6.99 65.71 -7.66 65.88 -8.52 C 66.03 -9.36 66.11 -10.39 66.11 -11.63 Z" stroke-linecap="round" />
</g>
</g>
</g>
</svg>